<?xml version="1.0" encoding="UTF-8" standalone="no"?>
<!DOCTYPE svg PUBLIC "-//W3C//DTD SVG 1.1//EN"
 "http://www.w3.org/Graphics/SVG/1.1/DTD/svg11.dtd">
<!-- Generated by graphviz version 2.44.1 (20200629.0846)
 -->
<!-- Title: dependencies Pages: 1 -->
<svg width="1237pt" height="211pt"
 viewBox="0.00 0.00 1237.00 211.00" xmlns="http://www.w3.org/2000/svg" xmlns:xlink="http://www.w3.org/1999/xlink">
<g id="graph0" class="graph" transform="scale(1 1) rotate(0) translate(4 207)">
<title>dependencies</title>
<polygon fill="white" stroke="transparent" points="-4,4 -4,-207 1233,-207 1233,4 -4,4"/>
<text text-anchor="start" x="593.51" y="-42.4" font-family="sans-serif" font-weight="bold" font-size="14.00">Legend</text>
<polygon fill="#ffffb3" stroke="transparent" points="380.5,-10 380.5,-30 400.5,-30 400.5,-10 380.5,-10"/>
<text text-anchor="start" x="404.13" y="-15.4" font-family="sans-serif" font-size="14.00"> &#160;Declarations</text>
<polygon fill="#8dd3c7" stroke="transparent" points="493.5,-10 493.5,-30 513.5,-30 513.5,-10 493.5,-10"/>
<text text-anchor="start" x="517.23" y="-15.4" font-family="sans-serif" font-size="14.00"> &#160;Module</text>
<polygon fill="#80b1d3" stroke="transparent" points="579.5,-10 579.5,-30 599.5,-30 599.5,-10 579.5,-10"/>
<text text-anchor="start" x="603.28" y="-15.4" font-family="sans-serif" font-size="14.00"> &#160;Bootstrap</text>
<polygon fill="#fdb462" stroke="transparent" points="676.5,-10 676.5,-30 696.5,-30 696.5,-10 676.5,-10"/>
<text text-anchor="start" x="700.17" y="-15.4" font-family="sans-serif" font-size="14.00"> &#160;Providers</text>
<polygon fill="#fb8072" stroke="transparent" points="772.5,-10 772.5,-30 792.5,-30 792.5,-10 772.5,-10"/>
<text text-anchor="start" x="796.23" y="-15.4" font-family="sans-serif" font-size="14.00"> &#160;Exports</text>
<g id="clust1" class="cluster">
<title>cluster_ShopModule</title>
<polygon fill="none" stroke="black" stroke-dasharray="1,5" points="8,-70 8,-195 1221,-195 1221,-70 8,-70"/>
</g>
<g id="clust12" class="cluster">
<title>cluster_ShopModule_providers</title>
<polygon fill="none" stroke="black" points="1077,-78 1077,-130 1213,-130 1213,-78 1077,-78"/>
</g>
<g id="clust9" class="cluster">
<title>cluster_ShopModule_imports</title>
<polygon fill="none" stroke="black" points="969,-78 969,-130 1069,-130 1069,-78 969,-78"/>
</g>
<g id="clust2" class="cluster">
<title>cluster_ShopModule_declarations</title>
<polygon fill="none" stroke="black" points="16,-78 16,-130 961,-130 961,-78 16,-78"/>
</g>
<!-- ShopAsideComponent -->
<g id="node1" class="node">
<title>ShopAsideComponent</title>
<polygon fill="#ffffb3" stroke="black" points="953.27,-122 810.73,-122 810.73,-86 953.27,-86 953.27,-122"/>
<text text-anchor="middle" x="882" y="-99.8" font-family="Times,serif" font-size="14.00">ShopAsideComponent</text>
</g>
<!-- ShopModule -->
<g id="node7" class="node">
<title>ShopModule</title>
<polygon fill="#8dd3c7" stroke="black" points="708.33,-187 705.33,-191 684.33,-191 681.33,-187 619.67,-187 619.67,-151 708.33,-151 708.33,-187"/>
<text text-anchor="middle" x="664" y="-164.8" font-family="Times,serif" font-size="14.00">ShopModule</text>
</g>
<!-- ShopAsideComponent&#45;&gt;ShopModule -->
<g id="edge1" class="edge">
<title>ShopAsideComponent&#45;&gt;ShopModule</title>
<path fill="none" stroke="black" d="M882,-122.03C882,-138.4 882,-160 882,-160 882,-160 718.38,-160 718.38,-160"/>
<polygon fill="black" stroke="black" points="718.38,-156.5 708.38,-160 718.38,-163.5 718.38,-156.5"/>
</g>
<!-- ShopComponent -->
<g id="node2" class="node">
<title>ShopComponent</title>
<polygon fill="#ffffb3" stroke="black" points="793.12,-122 682.88,-122 682.88,-86 793.12,-86 793.12,-122"/>
<text text-anchor="middle" x="738" y="-99.8" font-family="Times,serif" font-size="14.00">ShopComponent</text>
</g>
<!-- ShopComponent&#45;&gt;ShopModule -->
<g id="edge2" class="edge">
<title>ShopComponent&#45;&gt;ShopModule</title>
<path fill="none" stroke="black" d="M695.55,-122.11C695.55,-122.11 695.55,-140.99 695.55,-140.99"/>
<polygon fill="black" stroke="black" points="692.05,-140.99 695.55,-150.99 699.05,-140.99 692.05,-140.99"/>
</g>
<!-- ShopHeaderComponent -->
<g id="node3" class="node">
<title>ShopHeaderComponent</title>
<polygon fill="#ffffb3" stroke="black" points="665.03,-122 514.97,-122 514.97,-86 665.03,-86 665.03,-122"/>
<text text-anchor="middle" x="590" y="-99.8" font-family="Times,serif" font-size="14.00">ShopHeaderComponent</text>
</g>
<!-- ShopHeaderComponent&#45;&gt;ShopModule -->
<g id="edge3" class="edge">
<title>ShopHeaderComponent&#45;&gt;ShopModule</title>
<path fill="none" stroke="black" d="M642.55,-122.11C642.55,-122.11 642.55,-140.99 642.55,-140.99"/>
<polygon fill="black" stroke="black" points="639.05,-140.99 642.55,-150.99 646.05,-140.99 639.05,-140.99"/>
</g>
<!-- ShopHomeComponent -->
<g id="node4" class="node">
<title>ShopHomeComponent</title>
<polygon fill="#ffffb3" stroke="black" points="497.33,-122 352.67,-122 352.67,-86 497.33,-86 497.33,-122"/>
<text text-anchor="middle" x="425" y="-99.8" font-family="Times,serif" font-size="14.00">ShopHomeComponent</text>
</g>
<!-- ShopHomeComponent&#45;&gt;ShopModule -->
<g id="edge4" class="edge">
<title>ShopHomeComponent&#45;&gt;ShopModule</title>
<path fill="none" stroke="black" d="M425,-122.03C425,-138.4 425,-160 425,-160 425,-160 609.61,-160 609.61,-160"/>
<polygon fill="black" stroke="black" points="609.61,-163.5 619.61,-160 609.61,-156.5 609.61,-163.5"/>
</g>
<!-- ShopProductsComponent -->
<g id="node5" class="node">
<title>ShopProductsComponent</title>
<polygon fill="#ffffb3" stroke="black" points="334.61,-122 175.39,-122 175.39,-86 334.61,-86 334.61,-122"/>
<text text-anchor="middle" x="255" y="-99.8" font-family="Times,serif" font-size="14.00">ShopProductsComponent</text>
</g>
<!-- ShopProductsComponent&#45;&gt;ShopModule -->
<g id="edge5" class="edge">
<title>ShopProductsComponent&#45;&gt;ShopModule</title>
<path fill="none" stroke="black" d="M255,-122.11C255,-141.34 255,-169 255,-169 255,-169 609.45,-169 609.45,-169"/>
<polygon fill="black" stroke="black" points="609.45,-172.5 619.45,-169 609.45,-165.5 609.45,-172.5"/>
</g>
<!-- ShopSortComponent -->
<g id="node6" class="node">
<title>ShopSortComponent</title>
<polygon fill="#ffffb3" stroke="black" points="157.95,-122 24.05,-122 24.05,-86 157.95,-86 157.95,-122"/>
<text text-anchor="middle" x="91" y="-99.8" font-family="Times,serif" font-size="14.00">ShopSortComponent</text>
</g>
<!-- ShopSortComponent&#45;&gt;ShopModule -->
<g id="edge6" class="edge">
<title>ShopSortComponent&#45;&gt;ShopModule</title>
<path fill="none" stroke="black" d="M91,-122.29C91,-144.21 91,-178 91,-178 91,-178 609.51,-178 609.51,-178"/>
<polygon fill="black" stroke="black" points="609.51,-181.5 619.51,-178 609.51,-174.5 609.51,-181.5"/>
</g>
<!-- AppModule -->
<g id="node8" class="node">
<title>AppModule</title>
<polygon fill="#8dd3c7" stroke="black" points="1060.66,-122 1057.66,-126 1036.66,-126 1033.66,-122 977.34,-122 977.34,-86 1060.66,-86 1060.66,-122"/>
<text text-anchor="middle" x="1019" y="-99.8" font-family="Times,serif" font-size="14.00">AppModule</text>
</g>
<!-- AppModule&#45;&gt;ShopModule -->
<g id="edge7" class="edge">
<title>AppModule&#45;&gt;ShopModule</title>
<path fill="none" stroke="black" d="M1019,-122.11C1019,-141.34 1019,-169 1019,-169 1019,-169 718.24,-169 718.24,-169"/>
<polygon fill="black" stroke="black" points="718.24,-165.5 708.24,-169 718.24,-172.5 718.24,-165.5"/>
</g>
<!-- ShopService -->
<g id="node9" class="node">
<title>ShopService</title>
<ellipse fill="#fdb462" stroke="black" cx="1145" cy="-104" rx="59.69" ry="18"/>
<text text-anchor="middle" x="1145" y="-99.8" font-family="Times,serif" font-size="14.00">ShopService</text>
</g>
<!-- ShopService&#45;&gt;ShopModule -->
<g id="edge8" class="edge">
<title>ShopService&#45;&gt;ShopModule</title>
<path fill="none" stroke="black" d="M1145,-122.29C1145,-144.21 1145,-178 1145,-178 1145,-178 718.39,-178 718.39,-178"/>
<polygon fill="black" stroke="black" points="718.39,-174.5 708.39,-178 718.39,-181.5 718.39,-174.5"/>
</g>
</g>
</svg>
