<?xml version="1.0" encoding="UTF-8" standalone="no"?>
<!DOCTYPE svg PUBLIC "-//W3C//DTD SVG 1.1//EN"
 "http://www.w3.org/Graphics/SVG/1.1/DTD/svg11.dtd">
<!-- Generated by graphviz version 2.44.1 (20200629.0846)
 -->
<!-- Title: dependencies Pages: 1 -->
<svg width="867pt" height="284pt"
 viewBox="0.00 0.00 867.00 284.00" xmlns="http://www.w3.org/2000/svg" xmlns:xlink="http://www.w3.org/1999/xlink">
<g id="graph0" class="graph" transform="scale(1 1) rotate(0) translate(4 280)">
<title>dependencies</title>
<polygon fill="white" stroke="transparent" points="-4,4 -4,-280 863,-280 863,4 -4,4"/>
<text text-anchor="start" x="408.51" y="-42.4" font-family="sans-serif" font-weight="bold" font-size="14.00">Legend</text>
<polygon fill="#ffffb3" stroke="transparent" points="195.5,-10 195.5,-30 215.5,-30 215.5,-10 195.5,-10"/>
<text text-anchor="start" x="219.13" y="-15.4" font-family="sans-serif" font-size="14.00"> &#160;Declarations</text>
<polygon fill="#8dd3c7" stroke="transparent" points="308.5,-10 308.5,-30 328.5,-30 328.5,-10 308.5,-10"/>
<text text-anchor="start" x="332.23" y="-15.4" font-family="sans-serif" font-size="14.00"> &#160;Module</text>
<polygon fill="#80b1d3" stroke="transparent" points="394.5,-10 394.5,-30 414.5,-30 414.5,-10 394.5,-10"/>
<text text-anchor="start" x="418.28" y="-15.4" font-family="sans-serif" font-size="14.00"> &#160;Bootstrap</text>
<polygon fill="#fdb462" stroke="transparent" points="491.5,-10 491.5,-30 511.5,-30 511.5,-10 491.5,-10"/>
<text text-anchor="start" x="515.17" y="-15.4" font-family="sans-serif" font-size="14.00"> &#160;Providers</text>
<polygon fill="#fb8072" stroke="transparent" points="587.5,-10 587.5,-30 607.5,-30 607.5,-10 587.5,-10"/>
<text text-anchor="start" x="611.23" y="-15.4" font-family="sans-serif" font-size="14.00"> &#160;Exports</text>
<g id="clust1" class="cluster">
<title>cluster_AppModule</title>
<polygon fill="none" stroke="black" stroke-dasharray="1,5" points="8,-70 8,-268 851,-268 851,-70 8,-70"/>
</g>
<g id="clust8" class="cluster">
<title>cluster_AppModule_exports</title>
<polygon fill="none" stroke="black" points="138,-208 138,-260 560,-260 560,-208 138,-208"/>
</g>
<g id="clust7" class="cluster">
<title>cluster_AppModule_imports</title>
<polygon fill="none" stroke="black" points="547,-78 547,-130 843,-130 843,-78 547,-78"/>
</g>
<g id="clust2" class="cluster">
<title>cluster_AppModule_declarations</title>
<polygon fill="none" stroke="black" points="16,-78 16,-130 539,-130 539,-78 16,-78"/>
</g>
<g id="clust9" class="cluster">
<title>cluster_AppModule_bootstrap</title>
<polygon fill="none" stroke="black" points="568,-208 568,-260 692,-260 692,-208 568,-208"/>
</g>
<!-- AppComponent -->
<g id="node1" class="node">
<title>AppComponent</title>
<polygon fill="#ffffb3" stroke="black" points="530.94,-122 425.06,-122 425.06,-86 530.94,-86 530.94,-122"/>
<text text-anchor="middle" x="478" y="-99.8" font-family="Times,serif" font-size="14.00">AppComponent</text>
</g>
<!-- AppModule -->
<g id="node5" class="node">
<title>AppModule</title>
<polygon fill="#8dd3c7" stroke="black" points="454.66,-187 451.66,-191 430.66,-191 427.66,-187 371.34,-187 371.34,-151 454.66,-151 454.66,-187"/>
<text text-anchor="middle" x="413" y="-164.8" font-family="Times,serif" font-size="14.00">AppModule</text>
</g>
<!-- AppComponent&#45;&gt;AppModule -->
<g id="edge1" class="edge">
<title>AppComponent&#45;&gt;AppModule</title>
<path fill="none" stroke="black" d="M440.05,-122.11C440.05,-122.11 440.05,-140.99 440.05,-140.99"/>
<polygon fill="black" stroke="black" points="436.55,-140.99 440.05,-150.99 443.55,-140.99 436.55,-140.99"/>
</g>
<!-- FooterComponent -->
<g id="node2" class="node">
<title>FooterComponent</title>
<polygon fill="#ffffb3" stroke="black" points="406.88,-122 289.12,-122 289.12,-86 406.88,-86 406.88,-122"/>
<text text-anchor="middle" x="348" y="-99.8" font-family="Times,serif" font-size="14.00">FooterComponent</text>
</g>
<!-- FooterComponent&#45;&gt;AppModule -->
<g id="edge2" class="edge">
<title>FooterComponent&#45;&gt;AppModule</title>
<path fill="none" stroke="black" d="M389.06,-122.11C389.06,-122.11 389.06,-140.99 389.06,-140.99"/>
<polygon fill="black" stroke="black" points="385.56,-140.99 389.06,-150.99 392.56,-140.99 385.56,-140.99"/>
</g>
<!-- HomeComponent -->
<g id="node3" class="node">
<title>HomeComponent</title>
<polygon fill="#ffffb3" stroke="black" points="270.55,-122 155.45,-122 155.45,-86 270.55,-86 270.55,-122"/>
<text text-anchor="middle" x="213" y="-99.8" font-family="Times,serif" font-size="14.00">HomeComponent</text>
</g>
<!-- HomeComponent&#45;&gt;AppModule -->
<g id="edge3" class="edge">
<title>HomeComponent&#45;&gt;AppModule</title>
<path fill="none" stroke="black" d="M266.56,-122.03C266.56,-138.4 266.56,-160 266.56,-160 266.56,-160 361.04,-160 361.04,-160"/>
<polygon fill="black" stroke="black" points="361.04,-163.5 371.04,-160 361.04,-156.5 361.04,-163.5"/>
</g>
<!-- NewsComponent -->
<g id="node4" class="node">
<title>NewsComponent</title>
<polygon fill="#ffffb3" stroke="black" points="137.7,-122 24.3,-122 24.3,-86 137.7,-86 137.7,-122"/>
<text text-anchor="middle" x="81" y="-99.8" font-family="Times,serif" font-size="14.00">NewsComponent</text>
</g>
<!-- NewsComponent&#45;&gt;AppModule -->
<g id="edge4" class="edge">
<title>NewsComponent&#45;&gt;AppModule</title>
<path fill="none" stroke="black" d="M81,-122.11C81,-141.34 81,-169 81,-169 81,-169 361.29,-169 361.29,-169"/>
<polygon fill="black" stroke="black" points="361.29,-172.5 371.29,-169 361.29,-165.5 361.29,-172.5"/>
</g>
<!-- AppRoutingModule  -->
<g id="node8" class="node">
<title>AppRoutingModule </title>
<polygon fill="#fb8072" stroke="black" points="552.27,-252 419.73,-252 419.73,-216 552.27,-216 552.27,-252"/>
<text text-anchor="middle" x="486" y="-229.8" font-family="Times,serif" font-size="14.00">AppRoutingModule </text>
</g>
<!-- AppModule&#45;&gt;AppRoutingModule  -->
<g id="edge7" class="edge">
<title>AppModule&#45;&gt;AppRoutingModule </title>
<path fill="none" stroke="black" stroke-dasharray="5,2" d="M437.35,-187.11C437.35,-187.11 437.35,-205.99 437.35,-205.99"/>
<polygon fill="black" stroke="black" points="433.85,-205.99 437.35,-215.99 440.85,-205.99 433.85,-205.99"/>
</g>
<!-- FooterComponent  -->
<g id="node9" class="node">
<title>FooterComponent </title>
<polygon fill="#fb8072" stroke="black" points="401.88,-252 280.12,-252 280.12,-216 401.88,-216 401.88,-252"/>
<text text-anchor="middle" x="341" y="-229.8" font-family="Times,serif" font-size="14.00">FooterComponent </text>
</g>
<!-- AppModule&#45;&gt;FooterComponent  -->
<g id="edge8" class="edge">
<title>AppModule&#45;&gt;FooterComponent </title>
<path fill="none" stroke="black" stroke-dasharray="5,2" d="M386.43,-187.11C386.43,-187.11 386.43,-205.99 386.43,-205.99"/>
<polygon fill="black" stroke="black" points="382.93,-205.99 386.43,-215.99 389.93,-205.99 382.93,-205.99"/>
</g>
<!-- NewsComponent  -->
<g id="node10" class="node">
<title>NewsComponent </title>
<polygon fill="#fb8072" stroke="black" points="262.21,-252 145.79,-252 145.79,-216 262.21,-216 262.21,-252"/>
<text text-anchor="middle" x="204" y="-229.8" font-family="Times,serif" font-size="14.00">NewsComponent </text>
</g>
<!-- AppModule&#45;&gt;NewsComponent  -->
<g id="edge9" class="edge">
<title>AppModule&#45;&gt;NewsComponent </title>
<path fill="none" stroke="black" stroke-dasharray="5,2" d="M371.18,-178C311.44,-178 208.79,-178 208.79,-178 208.79,-178 208.79,-205.97 208.79,-205.97"/>
<polygon fill="black" stroke="black" points="205.29,-205.97 208.79,-215.97 212.29,-205.97 205.29,-205.97"/>
</g>
<!-- AppComponent  -->
<g id="node11" class="node">
<title>AppComponent </title>
<polygon fill="#80b1d3" stroke="black" points="684.44,-252 575.56,-252 575.56,-216 684.44,-216 684.44,-252"/>
<text text-anchor="middle" x="630" y="-229.8" font-family="Times,serif" font-size="14.00">AppComponent </text>
</g>
<!-- AppModule&#45;&gt;AppComponent  -->
<g id="edge10" class="edge">
<title>AppModule&#45;&gt;AppComponent </title>
<path fill="none" stroke="black" stroke-dasharray="1,5" d="M454.84,-178C517.9,-178 630,-178 630,-178 630,-178 630,-205.97 630,-205.97"/>
<polygon fill="black" stroke="black" points="626.5,-205.97 630,-215.97 633.5,-205.97 626.5,-205.97"/>
</g>
<!-- AppRoutingModule -->
<g id="node6" class="node">
<title>AppRoutingModule</title>
<polygon fill="#8dd3c7" stroke="black" points="835.27,-122 832.27,-126 811.27,-126 808.27,-122 706.73,-122 706.73,-86 835.27,-86 835.27,-122"/>
<text text-anchor="middle" x="771" y="-99.8" font-family="Times,serif" font-size="14.00">AppRoutingModule</text>
</g>
<!-- AppRoutingModule&#45;&gt;AppModule -->
<g id="edge5" class="edge">
<title>AppRoutingModule&#45;&gt;AppModule</title>
<path fill="none" stroke="black" d="M771,-122.11C771,-141.34 771,-169 771,-169 771,-169 464.77,-169 464.77,-169"/>
<polygon fill="black" stroke="black" points="464.77,-165.5 454.77,-169 464.77,-172.5 464.77,-165.5"/>
</g>
<!-- ShopRoutingModule -->
<g id="node7" class="node">
<title>ShopRoutingModule</title>
<polygon fill="#8dd3c7" stroke="black" points="688.95,-122 685.95,-126 664.95,-126 661.95,-122 555.05,-122 555.05,-86 688.95,-86 688.95,-122"/>
<text text-anchor="middle" x="622" y="-99.8" font-family="Times,serif" font-size="14.00">ShopRoutingModule</text>
</g>
<!-- ShopRoutingModule&#45;&gt;AppModule -->
<g id="edge6" class="edge">
<title>ShopRoutingModule&#45;&gt;AppModule</title>
<path fill="none" stroke="black" d="M565.4,-122.03C565.4,-138.4 565.4,-160 565.4,-160 565.4,-160 465.05,-160 465.05,-160"/>
<polygon fill="black" stroke="black" points="465.05,-156.5 455.05,-160 465.05,-163.5 465.05,-156.5"/>
</g>
</g>
</svg>
