<?xml version="1.0" encoding="UTF-8" standalone="no"?>
<!DOCTYPE svg PUBLIC "-//W3C//DTD SVG 1.1//EN"
 "http://www.w3.org/Graphics/SVG/1.1/DTD/svg11.dtd">
<!-- Generated by graphviz version 2.44.1 (20200629.0846)
 -->
<!-- Title: dependencies Pages: 1 -->
<svg width="1980pt" height="287pt"
 viewBox="0.00 0.00 1980.00 287.00" xmlns="http://www.w3.org/2000/svg" xmlns:xlink="http://www.w3.org/1999/xlink">
<g id="graph0" class="graph" transform="scale(1 1) rotate(0) translate(4 283)">
<title>dependencies</title>
<polygon fill="white" stroke="transparent" points="-4,4 -4,-283 1976,-283 1976,4 -4,4"/>
<text text-anchor="start" x="965.01" y="-42.4" font-family="sans-serif" font-weight="bold" font-size="14.00">Legend</text>
<polygon fill="#ffffb3" stroke="transparent" points="752,-10 752,-30 772,-30 772,-10 752,-10"/>
<text text-anchor="start" x="775.63" y="-15.4" font-family="sans-serif" font-size="14.00"> &#160;Declarations</text>
<polygon fill="#8dd3c7" stroke="transparent" points="865,-10 865,-30 885,-30 885,-10 865,-10"/>
<text text-anchor="start" x="888.73" y="-15.4" font-family="sans-serif" font-size="14.00"> &#160;Module</text>
<polygon fill="#80b1d3" stroke="transparent" points="951,-10 951,-30 971,-30 971,-10 951,-10"/>
<text text-anchor="start" x="974.78" y="-15.4" font-family="sans-serif" font-size="14.00"> &#160;Bootstrap</text>
<polygon fill="#fdb462" stroke="transparent" points="1048,-10 1048,-30 1068,-30 1068,-10 1048,-10"/>
<text text-anchor="start" x="1071.67" y="-15.4" font-family="sans-serif" font-size="14.00"> &#160;Providers</text>
<polygon fill="#fb8072" stroke="transparent" points="1144,-10 1144,-30 1164,-30 1164,-10 1144,-10"/>
<text text-anchor="start" x="1167.73" y="-15.4" font-family="sans-serif" font-size="14.00"> &#160;Exports</text>
<g id="clust7" class="cluster">
<title>cluster_AppModule</title>
<polygon fill="none" stroke="black" stroke-dasharray="1,5" points="8,-70 8,-271 851,-271 851,-70 8,-70"/>
</g>
<g id="clust8" class="cluster">
<title>cluster_AppModule_declarations</title>
<polygon fill="none" stroke="black" points="320,-78 320,-130 843,-130 843,-78 320,-78"/>
</g>
<g id="clust13" class="cluster">
<title>cluster_AppModule_imports</title>
<polygon fill="none" stroke="black" points="16,-78 16,-130 312,-130 312,-78 16,-78"/>
</g>
<g id="clust14" class="cluster">
<title>cluster_AppModule_exports</title>
<polygon fill="none" stroke="black" points="229,-211 229,-263 651,-263 651,-211 229,-211"/>
</g>
<g id="clust15" class="cluster">
<title>cluster_AppModule_bootstrap</title>
<polygon fill="none" stroke="black" points="659,-211 659,-263 783,-263 783,-211 659,-211"/>
</g>
<g id="clust29" class="cluster">
<title>cluster_ShopModule</title>
<polygon fill="none" stroke="black" stroke-dasharray="1,5" points="859,-138 859,-263 1964,-263 1964,-138 859,-138"/>
</g>
<g id="clust30" class="cluster">
<title>cluster_ShopModule_declarations</title>
<polygon fill="none" stroke="black" points="1011,-146 1011,-198 1956,-198 1956,-146 1011,-146"/>
</g>
<g id="clust40" class="cluster">
<title>cluster_ShopModule_providers</title>
<polygon fill="none" stroke="black" points="867,-146 867,-198 1003,-198 1003,-146 867,-146"/>
</g>
<!-- AppComponent -->
<g id="node1" class="node">
<title>AppComponent</title>
<polygon fill="#ffffb3" stroke="black" points="834.94,-122 729.06,-122 729.06,-86 834.94,-86 834.94,-122"/>
<text text-anchor="middle" x="782" y="-99.8" font-family="Times,serif" font-size="14.00">AppComponent</text>
</g>
<!-- AppModule -->
<g id="node5" class="node">
<title>AppModule</title>
<polygon fill="#8dd3c7" stroke="black" points="558.66,-190 555.66,-194 534.66,-194 531.66,-190 475.34,-190 475.34,-154 558.66,-154 558.66,-190"/>
<text text-anchor="middle" x="517" y="-167.8" font-family="Times,serif" font-size="14.00">AppModule</text>
</g>
<!-- AppComponent&#45;&gt;AppModule -->
<g id="edge1" class="edge">
<title>AppComponent&#45;&gt;AppModule</title>
<path fill="none" stroke="black" d="M752.38,-122.11C752.38,-141.34 752.38,-169 752.38,-169 752.38,-169 568.81,-169 568.81,-169"/>
<polygon fill="black" stroke="black" points="568.81,-165.5 558.81,-169 568.81,-172.5 568.81,-165.5"/>
</g>
<!-- FooterComponent -->
<g id="node2" class="node">
<title>FooterComponent</title>
<polygon fill="#ffffb3" stroke="black" points="710.88,-122 593.12,-122 593.12,-86 710.88,-86 710.88,-122"/>
<text text-anchor="middle" x="652" y="-99.8" font-family="Times,serif" font-size="14.00">FooterComponent</text>
</g>
<!-- FooterComponent&#45;&gt;AppModule -->
<g id="edge2" class="edge">
<title>FooterComponent&#45;&gt;AppModule</title>
<path fill="none" stroke="black" d="M618.1,-122.03C618.1,-139.06 618.1,-162 618.1,-162 618.1,-162 568.7,-162 568.7,-162"/>
<polygon fill="black" stroke="black" points="568.7,-158.5 558.7,-162 568.7,-165.5 568.7,-158.5"/>
</g>
<!-- HomeComponent -->
<g id="node3" class="node">
<title>HomeComponent</title>
<polygon fill="#ffffb3" stroke="black" points="574.55,-122 459.45,-122 459.45,-86 574.55,-86 574.55,-122"/>
<text text-anchor="middle" x="517" y="-99.8" font-family="Times,serif" font-size="14.00">HomeComponent</text>
</g>
<!-- HomeComponent&#45;&gt;AppModule -->
<g id="edge3" class="edge">
<title>HomeComponent&#45;&gt;AppModule</title>
<path fill="none" stroke="black" d="M517,-122.22C517,-122.22 517,-143.73 517,-143.73"/>
<polygon fill="black" stroke="black" points="513.5,-143.73 517,-153.73 520.5,-143.73 513.5,-143.73"/>
</g>
<!-- NewsComponent -->
<g id="node4" class="node">
<title>NewsComponent</title>
<polygon fill="#ffffb3" stroke="black" points="441.7,-122 328.3,-122 328.3,-86 441.7,-86 441.7,-122"/>
<text text-anchor="middle" x="385" y="-99.8" font-family="Times,serif" font-size="14.00">NewsComponent</text>
</g>
<!-- NewsComponent&#45;&gt;AppModule -->
<g id="edge4" class="edge">
<title>NewsComponent&#45;&gt;AppModule</title>
<path fill="none" stroke="black" d="M406.46,-122.03C406.46,-139.06 406.46,-162 406.46,-162 406.46,-162 465.21,-162 465.21,-162"/>
<polygon fill="black" stroke="black" points="465.21,-165.5 475.21,-162 465.21,-158.5 465.21,-165.5"/>
</g>
<!-- AppRoutingModule  -->
<g id="node8" class="node">
<title>AppRoutingModule </title>
<polygon fill="#fb8072" stroke="black" points="643.27,-255 510.73,-255 510.73,-219 643.27,-219 643.27,-255"/>
<text text-anchor="middle" x="577" y="-232.8" font-family="Times,serif" font-size="14.00">AppRoutingModule </text>
</g>
<!-- AppModule&#45;&gt;AppRoutingModule  -->
<g id="edge7" class="edge">
<title>AppModule&#45;&gt;AppRoutingModule </title>
<path fill="none" stroke="black" stroke-dasharray="5,2" d="M534.85,-190.11C534.85,-190.11 534.85,-208.99 534.85,-208.99"/>
<polygon fill="black" stroke="black" points="531.35,-208.99 534.85,-218.99 538.35,-208.99 531.35,-208.99"/>
</g>
<!-- FooterComponent  -->
<g id="node9" class="node">
<title>FooterComponent </title>
<polygon fill="#fb8072" stroke="black" points="492.88,-255 371.12,-255 371.12,-219 492.88,-219 492.88,-255"/>
<text text-anchor="middle" x="432" y="-232.8" font-family="Times,serif" font-size="14.00">FooterComponent </text>
</g>
<!-- AppModule&#45;&gt;FooterComponent  -->
<g id="edge8" class="edge">
<title>AppModule&#45;&gt;FooterComponent </title>
<path fill="none" stroke="black" stroke-dasharray="5,2" d="M483.93,-190.11C483.93,-190.11 483.93,-208.99 483.93,-208.99"/>
<polygon fill="black" stroke="black" points="480.43,-208.99 483.93,-218.99 487.43,-208.99 480.43,-208.99"/>
</g>
<!-- NewsComponent  -->
<g id="node10" class="node">
<title>NewsComponent </title>
<polygon fill="#fb8072" stroke="black" points="353.21,-255 236.79,-255 236.79,-219 353.21,-219 353.21,-255"/>
<text text-anchor="middle" x="295" y="-232.8" font-family="Times,serif" font-size="14.00">NewsComponent </text>
</g>
<!-- AppModule&#45;&gt;NewsComponent  -->
<g id="edge9" class="edge">
<title>AppModule&#45;&gt;NewsComponent </title>
<path fill="none" stroke="black" stroke-dasharray="5,2" d="M475.26,-183C423.18,-183 340.88,-183 340.88,-183 340.88,-183 340.88,-208.72 340.88,-208.72"/>
<polygon fill="black" stroke="black" points="337.38,-208.72 340.88,-218.72 344.38,-208.72 337.38,-208.72"/>
</g>
<!-- AppComponent  -->
<g id="node11" class="node">
<title>AppComponent </title>
<polygon fill="#80b1d3" stroke="black" points="775.44,-255 666.56,-255 666.56,-219 775.44,-219 775.44,-255"/>
<text text-anchor="middle" x="721" y="-232.8" font-family="Times,serif" font-size="14.00">AppComponent </text>
</g>
<!-- AppModule&#45;&gt;AppComponent  -->
<g id="edge10" class="edge">
<title>AppModule&#45;&gt;AppComponent </title>
<path fill="none" stroke="black" stroke-dasharray="1,5" d="M559.01,-183C609.85,-183 688.74,-183 688.74,-183 688.74,-183 688.74,-208.72 688.74,-208.72"/>
<polygon fill="black" stroke="black" points="685.24,-208.72 688.74,-218.72 692.24,-208.72 685.24,-208.72"/>
</g>
<!-- ShopModule -->
<g id="node18" class="node">
<title>ShopModule</title>
<polygon fill="#8dd3c7" stroke="black" points="1379.33,-255 1376.33,-259 1355.33,-259 1352.33,-255 1290.67,-255 1290.67,-219 1379.33,-219 1379.33,-255"/>
<text text-anchor="middle" x="1335" y="-232.8" font-family="Times,serif" font-size="14.00">ShopModule</text>
</g>
<!-- AppModule&#45;&gt;ShopModule -->
<g id="edge17" class="edge">
<title>AppModule&#45;&gt;ShopModule</title>
<path fill="none" stroke="black" d="M558.89,-176C638.79,-176 805.09,-176 805.09,-176 805.09,-176 805.09,-246 805.09,-246 805.09,-246 1280.73,-246 1280.73,-246"/>
<polygon fill="black" stroke="black" points="1280.73,-249.5 1290.73,-246 1280.73,-242.5 1280.73,-249.5"/>
</g>
<!-- AppRoutingModule -->
<g id="node6" class="node">
<title>AppRoutingModule</title>
<polygon fill="#8dd3c7" stroke="black" points="304.27,-122 301.27,-126 280.27,-126 277.27,-122 175.73,-122 175.73,-86 304.27,-86 304.27,-122"/>
<text text-anchor="middle" x="240" y="-99.8" font-family="Times,serif" font-size="14.00">AppRoutingModule</text>
</g>
<!-- AppRoutingModule&#45;&gt;AppModule -->
<g id="edge5" class="edge">
<title>AppRoutingModule&#45;&gt;AppModule</title>
<path fill="none" stroke="black" d="M270.52,-122.11C270.52,-141.34 270.52,-169 270.52,-169 270.52,-169 465.19,-169 465.19,-169"/>
<polygon fill="black" stroke="black" points="465.19,-172.5 475.19,-169 465.19,-165.5 465.19,-172.5"/>
</g>
<!-- ShopRoutingModule -->
<g id="node7" class="node">
<title>ShopRoutingModule</title>
<polygon fill="#8dd3c7" stroke="black" points="157.95,-122 154.95,-126 133.95,-126 130.95,-122 24.05,-122 24.05,-86 157.95,-86 157.95,-122"/>
<text text-anchor="middle" x="91" y="-99.8" font-family="Times,serif" font-size="14.00">ShopRoutingModule</text>
</g>
<!-- ShopRoutingModule&#45;&gt;AppModule -->
<g id="edge6" class="edge">
<title>ShopRoutingModule&#45;&gt;AppModule</title>
<path fill="none" stroke="black" d="M91,-122.17C91,-143.5 91,-176 91,-176 91,-176 464.99,-176 464.99,-176"/>
<polygon fill="black" stroke="black" points="464.99,-179.5 474.99,-176 464.99,-172.5 464.99,-179.5"/>
</g>
<!-- ShopAsideComponent -->
<g id="node12" class="node">
<title>ShopAsideComponent</title>
<polygon fill="#ffffb3" stroke="black" points="1948.27,-190 1805.73,-190 1805.73,-154 1948.27,-154 1948.27,-190"/>
<text text-anchor="middle" x="1877" y="-167.8" font-family="Times,serif" font-size="14.00">ShopAsideComponent</text>
</g>
<!-- ShopAsideComponent&#45;&gt;ShopModule -->
<g id="edge11" class="edge">
<title>ShopAsideComponent&#45;&gt;ShopModule</title>
<path fill="none" stroke="black" d="M1877,-190.29C1877,-212.21 1877,-246 1877,-246 1877,-246 1389.35,-246 1389.35,-246"/>
<polygon fill="black" stroke="black" points="1389.35,-242.5 1379.35,-246 1389.35,-249.5 1389.35,-242.5"/>
</g>
<!-- ShopComponent -->
<g id="node13" class="node">
<title>ShopComponent</title>
<polygon fill="#ffffb3" stroke="black" points="1788.12,-190 1677.88,-190 1677.88,-154 1788.12,-154 1788.12,-190"/>
<text text-anchor="middle" x="1733" y="-167.8" font-family="Times,serif" font-size="14.00">ShopComponent</text>
</g>
<!-- ShopComponent&#45;&gt;ShopModule -->
<g id="edge12" class="edge">
<title>ShopComponent&#45;&gt;ShopModule</title>
<path fill="none" stroke="black" d="M1733,-190.11C1733,-209.34 1733,-237 1733,-237 1733,-237 1389.5,-237 1389.5,-237"/>
<polygon fill="black" stroke="black" points="1389.5,-233.5 1379.5,-237 1389.5,-240.5 1389.5,-233.5"/>
</g>
<!-- ShopHeaderComponent -->
<g id="node14" class="node">
<title>ShopHeaderComponent</title>
<polygon fill="#ffffb3" stroke="black" points="1660.03,-190 1509.97,-190 1509.97,-154 1660.03,-154 1660.03,-190"/>
<text text-anchor="middle" x="1585" y="-167.8" font-family="Times,serif" font-size="14.00">ShopHeaderComponent</text>
</g>
<!-- ShopHeaderComponent&#45;&gt;ShopModule -->
<g id="edge13" class="edge">
<title>ShopHeaderComponent&#45;&gt;ShopModule</title>
<path fill="none" stroke="black" d="M1585,-190.03C1585,-206.4 1585,-228 1585,-228 1585,-228 1389.41,-228 1389.41,-228"/>
<polygon fill="black" stroke="black" points="1389.41,-224.5 1379.41,-228 1389.41,-231.5 1389.41,-224.5"/>
</g>
<!-- ShopHomeComponent -->
<g id="node15" class="node">
<title>ShopHomeComponent</title>
<polygon fill="#ffffb3" stroke="black" points="1492.33,-190 1347.67,-190 1347.67,-154 1492.33,-154 1492.33,-190"/>
<text text-anchor="middle" x="1420" y="-167.8" font-family="Times,serif" font-size="14.00">ShopHomeComponent</text>
</g>
<!-- ShopHomeComponent&#45;&gt;ShopModule -->
<g id="edge14" class="edge">
<title>ShopHomeComponent&#45;&gt;ShopModule</title>
<path fill="none" stroke="black" d="M1363.5,-190.11C1363.5,-190.11 1363.5,-208.99 1363.5,-208.99"/>
<polygon fill="black" stroke="black" points="1360,-208.99 1363.5,-218.99 1367,-208.99 1360,-208.99"/>
</g>
<!-- ShopProductsComponent -->
<g id="node16" class="node">
<title>ShopProductsComponent</title>
<polygon fill="#ffffb3" stroke="black" points="1329.61,-190 1170.39,-190 1170.39,-154 1329.61,-154 1329.61,-190"/>
<text text-anchor="middle" x="1250" y="-167.8" font-family="Times,serif" font-size="14.00">ShopProductsComponent</text>
</g>
<!-- ShopProductsComponent&#45;&gt;ShopModule -->
<g id="edge15" class="edge">
<title>ShopProductsComponent&#45;&gt;ShopModule</title>
<path fill="none" stroke="black" d="M1310.19,-190.11C1310.19,-190.11 1310.19,-208.99 1310.19,-208.99"/>
<polygon fill="black" stroke="black" points="1306.69,-208.99 1310.19,-218.99 1313.69,-208.99 1306.69,-208.99"/>
</g>
<!-- ShopSortComponent -->
<g id="node17" class="node">
<title>ShopSortComponent</title>
<polygon fill="#ffffb3" stroke="black" points="1152.95,-190 1019.05,-190 1019.05,-154 1152.95,-154 1152.95,-190"/>
<text text-anchor="middle" x="1086" y="-167.8" font-family="Times,serif" font-size="14.00">ShopSortComponent</text>
</g>
<!-- ShopSortComponent&#45;&gt;ShopModule -->
<g id="edge16" class="edge">
<title>ShopSortComponent&#45;&gt;ShopModule</title>
<path fill="none" stroke="black" d="M1086,-190.03C1086,-206.4 1086,-228 1086,-228 1086,-228 1280.77,-228 1280.77,-228"/>
<polygon fill="black" stroke="black" points="1280.77,-231.5 1290.77,-228 1280.77,-224.5 1280.77,-231.5"/>
</g>
<!-- ShopService -->
<g id="node19" class="node">
<title>ShopService</title>
<ellipse fill="#fdb462" stroke="black" cx="935" cy="-172" rx="59.69" ry="18"/>
<text text-anchor="middle" x="935" y="-167.8" font-family="Times,serif" font-size="14.00">ShopService</text>
</g>
<!-- ShopService&#45;&gt;ShopModule -->
<g id="edge18" class="edge">
<title>ShopService&#45;&gt;ShopModule</title>
<path fill="none" stroke="black" d="M935,-190.11C935,-209.34 935,-237 935,-237 935,-237 1280.66,-237 1280.66,-237"/>
<polygon fill="black" stroke="black" points="1280.66,-240.5 1290.66,-237 1280.66,-233.5 1280.66,-240.5"/>
</g>
</g>
</svg>
